<svg xmlns="http://www.w3.org/2000/svg" viewBox="0 0 52 52"><path fill="#1d2943" d="M30.475 41.2v2.43c0 .25-.16.49-.48.67l-8.85 5.15c-.65.38-1.71.38-2.36 0l-5.8-3.34c-.33-.2-.49-.45-.49-.7v-2.4c-.01-.26.15-.51.48-.71l8.85-5.14c.65-.38 1.71-.38 2.36 0l5.8 3.35c.33.19.49.44.49.69z"/><path fill="#1d2943" d="M30.475 41.198v2.43c0 .25-.158.493-.476.676l-8.857 5.15c-.642.376-1.71.376-2.362 0l-5.793-3.347c-.334-.192-.493-.442-.493-.692v-2.43c0 .25.158.492.492.684l5.793 3.347c.652.376 1.712.376 2.363 0l8.848-5.142c.326-.184.485-.434.485-.676z"/><path fill="#4c5c75" d="M29.985 40.507c.65.376.654.991.008 1.366l-8.854 5.145c-.645.376-1.708.376-2.358 0l-5.799-3.347c-.655-.379-.654-.991-.008-1.367l8.854-5.145c.646-.375 1.703-.378 2.358 0l5.8 3.348z"/><path fill="#1d2943" d="m19.043 46.566-5.8-3.348c-.285-.166-.314-.283-.006-.462l8.853-5.145c.487-.281 1.346-.282 1.835.002l5.799 3.347c.287.166.307.286.006.461l-8.853 5.146c-.482.28-1.345.281-1.834-.001z"/><path fill="#f3f1fc" d="m24.41 28.183-.04 14.001c-.001.482-.318.962-.95 1.33-1.278.742-3.355.746-4.642.003-.645-.373-.965-.86-.964-1.346l.04-14.001c-.002.486.319.973.964 1.346 1.287.743 3.364.74 4.642-.004.632-.367.949-.847.95-1.329z"/><path fill="#e9e7fc" d="M23.44 26.83c1.287.743 1.293 1.942.02 2.682-1.278.743-3.355.747-4.642.004-1.287-.744-1.283-1.943-.004-2.686 1.273-.74 3.338-.744 4.626 0z"/><path fill="#1d2943" d="M35.375 3.74c-.04-.02-.08-.03-.11-.04.02 0 .04 0 .06.01.02.01.03.02.05.03zm-.47-.12zM34.905 3.62z"/><path fill="#1d2943" d="M35.975 27.37c.01 1.19-.83 2.63-1.86 3.23L8.495 45.43c-.56.32-1.06.33-1.4.07.02.03.05.05.07.06l-2.79-1.63c-.33-.19-.54-.6-.54-1.19l-.04-22.43c-.01-1.18.83-2.63 1.86-3.23l25.62-14.82c.52-.31.98-.33 1.33-.13l2.72 1.58c-.02-.01-.04-.01-.06-.01.03.01.07.02.11.04.35.19.56.61.56 1.21l.04 22.42z"/><path fill="#1d2943" d="M35.375 3.74c-.04-.02-.08-.03-.11-.04.02 0 .04 0 .06.01.02.01.03.02.05.03z"/><path fill="#4c5c75" d="M3.792 20.313c-.007-1.187.83-2.63 1.859-3.23L31.27 2.259c.52-.304.989-.33 1.332-.132l2.788 1.621c-.343-.197-.81-.171-1.332.126L8.44 18.704c-1.028.593-1.865 2.044-1.859 3.23l.04 22.422c.007.594.211 1.002.547 1.2L4.38 43.935c-.336-.192-.54-.607-.54-1.194l-.047-22.428z"/><path fill="#1d2943" d="M34.059 3.877c1.03-.596 1.871-.117 1.875 1.073l.044 22.423c.003 1.185-.832 2.63-1.863 3.226L8.498 45.427c-1.032.595-1.872.116-1.875-1.069l-.045-22.422c-.003-1.19.832-2.636 1.863-3.232L34.059 3.877z"/><path fill="#9ea9c9" d="M35.975 25v2.37c.01 1.19-.83 2.63-1.86 3.23L8.495 45.43c-.57.33-1.09.33-1.43.05.03.03.06.05.09.07l-2.76-1.61c-.34-.19-.57-.62-.56-1.21v-2.38l2.78 1.62L35.975 25z"/><path fill="#c9cee2" d="M35.978 24.996v2.377c.003 1.185-.832 2.63-1.863 3.226L8.498 45.427c-1.032.595-1.872.116-1.875-1.069l-.005-2.385 29.36-16.977z"/><path fill="#1d2943" d="M21.295 34.242c.529-.306.956-.062.958.546.002.608-.423 1.343-.952 1.649-.53.305-.957.062-.958-.546-.002-.608.423-1.344.952-1.65z"/><path fill="#9ea9c9" d="m6.616 44.333.003-2.358-2.786-1.621.005 2.372c-.015.591.22 1.027.555 1.217l2.766 1.609c-.333-.197-.536-.63-.543-1.219z"/><path fill="#fff" d="M35.057 24.541 7.519 40.478l-.027-18.543c-.009-.864.655-2.01 1.4-2.446l25.62-14.828c.208-.118.335-.127.38-.127.055.018.128.136.128.418l.037 19.59z"/><path fill="#78e75a" d="M12.657 23.245c.22.96 1.062 1.282 2.065.703l.009 1.285c-1.544.891-2.83.4-3.169-1.061l1.095-.927z"/><path fill="#e3e7f0" d="m14.705 17.775.008 1.29c-1.353.776-2.394 2.84-2.056 4.18l-1.095.927c-.489-2.188 1.147-5.245 3.143-6.397z"/><path fill="#57b3fe" d="m19.495 24.096.021 7.354-1.71.988-.021-7.354z"/><path fill="#ffd06c" d="M17.873 18.842c.49 2.096-1.088 5.205-3.142 6.391l-.004-1.287c1.32-.769 2.374-2.769 2.056-4.186l1.09-.918z"/><path fill="#f45170" d="M14.71 17.772c1.543-.89 2.83-.394 3.163 1.07l-1.09.918c-.22-.954-1.062-1.276-2.07-.694l-.004-1.294zM16.898 28.159l.013 4.795-1.71.988-.014-4.796z"/><path fill="#dba660" d="m14.29 27.102.021 7.353-1.71.988-.021-7.354z"/><path fill="#f45170" d="m11.697 31.161.014 4.795-1.711.988-.013-4.795z"/><path fill="#dedffb" d="M20.982 23.291v1.278l13.196-7.619v-1.278zM20.982 29.264v1.278l13.196-7.619v-1.277zM20.982 26.272v1.289l13.196-7.619v-1.288z"/><path fill="#78e75a" d="M20.982 20.299v1.288l6.588-3.804v-1.288z"/><path fill="#dedffb" d="m34.178 12.68-4.475 2.584v1.288l4.475-2.584zM20.982 17.317v1.278l13.196-7.619V9.698zM20.982 14.325v1.288l13.196-7.619V6.706z"/><path fill="#f9a83d" d="M45.975 25.01c0 .59-.42 1.32-.94 1.62l-11.31 6.53c-.33.19-.62.14-.78-.07.03.05.07.1.11.13l-1.46-.85c-.17-.1-.28-.3-.28-.6l-.02-8.15c0-.6.42-1.32.94-1.62l11.31-6.53c.25-.15.49-.17.67-.07l1.45.85c.18.1.28.3.29.6l.02 8.16z"/><path fill="#f9a83d" d="M45.674 16.253c-.166-.1-.405-.086-.663.066L33.7 22.85c-.516.298-.94 1.02-.94 1.617l.026 8.154c0 .298.106.504.272.603l-1.463-.85c-.173-.1-.279-.305-.279-.603l-.02-8.147c0-.604.418-1.326.935-1.624l11.309-6.53c.258-.152.497-.166.67-.066l1.463.85z"/><path fill="#ffd06c" d="M45.007 16.318c.517-.298.941-.061.943.537l.023 8.151c.002.598-.42 1.324-.936 1.622l-11.309 6.53c-.516.297-.94.06-.943-.538l-.023-8.15c-.001-.599.42-1.325.937-1.623l11.308-6.529z"/><path fill="#fff" d="M45.501 25.275c0 .3-.211.66-.466.81L33.73 32.617c-.264.15-.475.027-.475-.272l-.026-8.144c0-.3.21-.67.475-.81l11.304-6.533c.256-.15.476-.026.476.265l.017 8.152z"/><path fill="#c9cee2" d="m45.151 23.045.006 1.998-11.226 6.482-.006-1.999z"/><path fill="#78e75a" d="M35.564 23.24c1.105-.637 2-.124 2.004 1.143.003 1.266-.886 2.814-1.991 3.452l-.007-2.299-.006-2.295z"/><path fill="#f45170" d="m33.8 25.488 1.77.048.007 2.299c-1.513.869-2.467-.431-1.778-2.347z"/><path fill="#57b3fe" d="m35.564 23.24.006 2.296-1.77-.048c.333-.922.994-1.803 1.764-2.247z"/><path fill="#dedffb" d="m45.148 21.632.001.435-7.211 4.163-.001-.435z"/><path fill="#dba660" d="m41.422 22.99 3.724-2.15-.002-.435-3.722 2.149z"/><path fill="#dedffb" d="m41.018 22.787-3.085 1.781.001.435 3.084-1.78zM45.141 19.178l.001.435-7.211 4.164-.001-.436zM41.945 20.23l3.194-1.844-.002-.435-3.192 1.843z"/><path fill="#57b3fe" d="m41.327 20.151-3.401 1.964.002.435 3.399-1.963z"/><path fill="#e93565" d="m48.205 43.35-.01 2.27c0 .19-.12.37-.37.52l-6.27 3.64c-.49.29-1.3.29-1.8 0l-6.3-3.63c-.25-.15-.38-.33-.38-.53v-2.27c0-.19.13-.37.37-.52l6.28-3.65c.5-.28 1.3-.28 1.8 0l6.31 3.64c.35.21.44.49.3.74.05-.07.07-.14.07-.21z"/><path fill="#df3260" d="m48.208 43.353-.01 2.268c0 .186-.12.372-.371.52l-6.273 3.643c-.492.288-1.3.288-1.802 0l-6.3-3.634c-.252-.148-.382-.334-.382-.53l.01-2.267c0 .186.12.372.371.52l6.31 3.644c.502.288 1.3.288 1.803 0l6.272-3.653c.251-.139.372-.325.372-.51z"/><path fill="#f45170" d="M47.831 42.825c.498.288.501.754.006 1.042l-6.278 3.648c-.495.288-1.3.288-1.798 0l-6.306-3.641c-.499-.288-.501-.754-.006-1.042l6.277-3.648c.495-.288 1.3-.288 1.798 0l6.307 3.641z"/><path fill="#e93565" d="M40.663 47.045a.997.997 0 0 1-.467-.098l-5.603-3.235a.418.418 0 0 1 0-.723l5.569-3.238a.99.99 0 0 1 .46-.096c.22 0 .385.05.466.097l5.604 3.235c.279.16.28.562.001.723l-5.57 3.238a.987.987 0 0 1-.46.097z"/><path fill="#e9e7fc" d="M38.939 45.152c-.469 0-.902-.11-1.286-.33-.922-.53-1.432-1.637-1.436-3.115-.009-2.997 2.107-6.66 4.717-8.167 1.294-.748 2.519-.866 3.448-.33.922.53 1.432 1.635 1.436 3.111.008 2.999-2.108 6.664-4.717 8.17-.76.44-1.496.661-2.162.661zm4.157-12c-.618 0-1.308.21-2.026.624-2.533 1.463-4.588 5.02-4.58 7.93.004 1.377.465 2.4 1.3 2.88.84.483 1.967.366 3.174-.33 2.534-1.464 4.589-5.023 4.58-7.934-.003-1.375-.465-2.396-1.298-2.876a2.277 2.277 0 0 0-1.15-.293z"/><path fill="#566df9" d="M42.708 43.735a5.358 5.358 0 0 1-7.428-4.945c0-.767.161-1.5.452-2.16a5.39 5.39 0 0 1 2.502-2.631 5.092 5.092 0 0 1 1.169-.42c-.111.044-.22.094-.326.147a5.359 5.359 0 0 0-2.956 4.792 5.358 5.358 0 0 0 6.587 5.217z"/><path fill="#566df9" d="M42.708 43.734a5.29 5.29 0 0 1-2.606.39 7.574 7.574 0 0 1-1.112-.858 5.329 5.329 0 0 0 3.718.468zM39.404 33.58a3.109 3.109 0 0 0-.328.148 5.375 5.375 0 0 0-2.5 2.63 5.386 5.386 0 0 0-.453 2.161c0 .574.09 1.128.261 1.647.051.171.113.34.187.5a6.813 6.813 0 0 0-.081 1.04c0 .173.007.34.023.504a4.621 4.621 0 0 1-.293-.39 5.326 5.326 0 0 1-.94-3.032c0-.764.16-1.498.453-2.157a5.383 5.383 0 0 1 2.5-2.634c.367-.183.761-.328 1.171-.417z"/><path fill="#678aee" d="M45.995 38.79a5.345 5.345 0 0 1-3.287 4.945 5.358 5.358 0 0 1-6.132-7.378 5.379 5.379 0 0 1 2.827-2.779 5.36 5.36 0 0 1 4.575 1.02 5.348 5.348 0 0 1 2.017 4.192z"/><path fill="#78e75a" d="M38.142 38.623c.088-.074.133-.199.237-.247.17-.079.36.095.547.07.099-.013.204-.08.29-.03.073.045.078.148.106.23a.35.35 0 0 0 .255.225c.055.012.115.01.164.039.1.059.098.208.177.293.054.058.135.078.212.095l.345.076c.094.021.191.044.263.106.09.077.125.205.109.322a.631.631 0 0 1-.154.313c-.04.047-.084.092-.105.15-.03.081-.005.171.007.257s.006.188-.064.24c-.054.042-.13.039-.194.063-.06-.01-.131.032-.176.072a.507.507 0 0 0-.102.147c-.033.064-.063.13-.089.196-.082.207-.135.433-.28.603a.697.697 0 0 1-.22.173c-.02.01-.04.018-.055.033a.164.164 0 0 0-.028.042c-.064.124-.113.265-.082.4.002.01.007.022.017.023.024.18.12.346.23.493.014.02.03.041.03.066.001.042-.045.073-.087.072a.22.22 0 0 1-.114-.05c-.13-.093-.252-.201-.346-.33-.172-.236-.244-.53-.278-.819-.046-.383-.095-.772-.099-1.158 0-.052.001-.107-.018-.156a.295.295 0 0 0-.145-.143c-.061-.032-.128-.053-.189-.087a.127.127 0 0 1-.037-.028c-.021-.025-.024-.061-.045-.085-.008-.101-.103-.174-.165-.254a1.503 1.503 0 0 1-.247-.485.353.353 0 0 1-.018-.166.342.342 0 0 1 .038-.097 1.2 1.2 0 0 1 .222-.29c.012-.012.025-.023.03-.04.006-.013.006-.027.007-.042.003-.109-.033-.222.05-.292zm4.4-4.842a.525.525 0 0 1-.206.424c-.05.037-.112.068-.14.124-.02.042-.02.094-.046.134-.037.058-.114.07-.181.082-.308.053-.6.19-.838.393-.071.061-.14.13-.229.164-.088.033-.203.018-.254-.062a.272.272 0 0 1-.032-.127c-.01-.143 0-.287.032-.427.022-.094.052-.197.009-.283a.296.296 0 0 0-.114-.109.746.746 0 0 0-.529-.092c-.058.011-.119.033-.152.082-.066.096.01.225.091.308.083.082.183.177.166.292a1.154 1.154 0 0 0-.293.286l.422.872c-.133.071-.167.287-.316.31-.096.014-.185-.064-.281-.056-.08.005-.141.066-.206.11-.066.045-.161.073-.219.019-.02-.02-.033-.048-.058-.061-.041-.023-.094.005-.12.045-.027.039-.038.087-.062.128-.093.162-.364.173-.423.351-.016.05-.013.106-.041.15-.057.087-.195.063-.282.121-.116.078-.092.252-.055.387-.115.085-.309-.02-.301-.162-.289-.042-.635-.063-.817.165a.438.438 0 0 0 .105.618.67.67 0 0 1 .16-.214c.072-.055.176-.077.252-.03-.117.151-.02.411.168.448l.08-.07c0 .12-.01.24-.032.359a.553.553 0 0 0 .253.049c.066.063-.008.187-.1.196-.092.009-.175-.05-.247-.106l-.487-.376a.389.389 0 0 0-.165-.089c-.039-.006-.078-.001-.117.003-.236.027-.536-.028-.602-.256-.018-.064-.014-.132-.016-.199a.949.949 0 0 0-.205-.549 1.28 1.28 0 0 0-.023.675c-.099-.11-.121-.267-.149-.412a5.845 5.845 0 0 0-.21-.765 5.36 5.36 0 0 1 6.81-2.85z"/><path fill="#78e75a" d="M37.92 37.688c-.013-.008-.033 0-.035.015l-.001.02c-.004.012-.019.017-.031.019a.46.46 0 0 1-.096.005.045.045 0 0 1-.023-.006c-.011-.007-.014-.023-.01-.036a.087.087 0 0 1 .023-.033.332.332 0 0 1 .082-.065.283.283 0 0 1 .186-.018c.062.013.12.038.179.062.063.025.128.048.178.093.017.015.031.031.049.045a.193.193 0 0 0 .116.043c.04.002.082-.007.122 0a.151.151 0 0 1 .119.138c0 .009 0 .019-.006.026-.005.01-.016.014-.026.018-.073.032-.152.064-.23.044a.364.364 0 0 1-.095-.045c-.03-.018-.061-.036-.089-.059-.005-.004-.012-.011-.01-.018.002-.005.005-.008.01-.01.012-.007.028-.007.042-.01.014-.003.03-.011.033-.026.002-.012-.006-.024-.016-.03s-.023-.008-.035-.01a.363.363 0 0 0-.08.002c-.024.003-.048.008-.072.009a.097.097 0 0 1-.068-.023c-.014-.013-.022-.032-.035-.047-.038-.045-.111-.043-.151-.086-.007-.006-.012-.014-.02-.02a.039.039 0 0 0-.045.003m8.112 1.104c0 .365-.036.722-.106 1.067a.84.84 0 0 0-.152.308c-.05.16-.094.334-.22.443-.04.034-.085.06-.12.099-.032.032-.053.072-.08.108-.07.094-.176.16-.233.263-.056.101-.056.223-.066.339-.008.1-.024.2-.048.297-.017.068-.04.14-.095.182-.065.05-.156.048-.237.038a.764.764 0 0 1-.375-.127.923.923 0 0 1-.183-.206c-.05-.07-.1-.14-.137-.218a1.347 1.347 0 0 1-.086-.3l-.061-.297c-.012-.059-.024-.118-.021-.178.004-.082.037-.16.047-.24.027-.197-.073-.386-.175-.556-.032-.054-.065-.109-.088-.168-.077-.199-.032-.43.02-.638-.182-.178-.162-.14-.818-.059-.374.046-.466-.022-.602-.179-.161-.185-.193-.257-.251-.49a1.538 1.538 0 0 1-.058-.325.776.776 0 0 1 .26-.596c.094-.083.215-.15.262-.268.01-.026.017-.055.028-.081.039-.09.13-.142.215-.19-.002-.048.094-.054.087-.1-.002-.014-.013-.024-.024-.032-.076-.052-.199-.037-.245-.118-.025-.043-.015-.098-.004-.147a.389.389 0 0 1 .051-.144c.054-.078.155-.107.25-.114.094-.008.191-.001.28-.033a.356.356 0 0 0-.127-.25c-.02-.017-.045-.034-.049-.06-.005-.039.036-.071.034-.11-.002-.039-.047-.062-.086-.059-.038.003-.073.023-.11.036-.036.012-.08.015-.108-.012-.027-.025-.028-.066-.026-.102.002-.055.009-.118.052-.152.021-.016.048-.024.07-.04.055-.047.045-.146.105-.186.033-.022.076-.02.115-.015.034.004.068.007.099.023.03.015.056.044.057.078 0 .03-.017.064 0 .09.012.016.037.02.05.037.02.022.01.056.01.085.004.081.102.132.182.117.081-.015.145-.074.205-.13a.214.214 0 0 0 .059-.075c.008-.021.009-.044.014-.066a.188.188 0 0 1 .128-.135c-.072-.081-.225-.005-.308-.075l.055-.135a.27.27 0 0 1 .022-.046.277.277 0 0 1 .047-.05l.18-.166a.407.407 0 0 1 .12-.087c.057-.023.124-.021.176-.047a5.349 5.349 0 0 1 2.02 4.192z"/><path fill="#78e75a" d="m45.007 41.543-.035.172c-.016.07-.04.14-.094.183-.066.05-.156.047-.238.04a.78.78 0 0 1-.308-.09 8.21 8.21 0 0 0 .675-.305z"/><path fill="#72d561" d="M44.75 36.725c-.017-.028-.027-.063-.057-.077-.037-.016-.114.012-.301-.031-.078-.018-.162-.054-.19-.128-.005-.014-.008-.03-.017-.041-.01-.012-.027-.018-.039-.01-.007.006-.01.014-.012.022-.082.238-.357.226-.34.115a.919.919 0 0 0 .158-.043c-.011-.044.03-.095.007-.134-.013-.023-.283-.18-.31-.196-.16-.096-.17.047-.298.048-.03 0-.064-.009-.083.013-.021.022-.007.061-.025.086-.022.031-.076.017-.103.045-.014.014-.017.035-.022.054a.253.253 0 0 1-.127.164c-.086.044-.198.04-.266.108.071.055.173.037.26.017.223-.052.306-.074.383-.085a.965.965 0 0 1 .36.015c.006.002.013.003.018.008.004.005.005.011.006.017a.477.477 0 0 0 .445.38c.05 0 .051-.018.07-.06.037-.084.148-.106.236-.084.088.023.165.077.252.104.165.053.389.002.444-.145.015-.043.015-.124-.03-.151-.039-.024-.088.01-.123.027-.092.044-.231.065-.296-.038z"/><path fill="#78e75a" d="M42.15 34.672c.007.01.014.02.024.028.01.007.024.01.035.005.01-.005.017-.017.028-.018.014-.002.029.012.04.005.008-.005.01-.015.013-.024.007-.02.03-.028.051-.03a.181.181 0 0 1 .126.032c.023.016.042.04.045.067.004.032-.016.063-.038.086a.217.217 0 0 1-.04.035.216.216 0 0 1-.117.03.55.55 0 0 1-.12-.016c-.01-.002-.021-.005-.032-.006-.035-.003-.074.01-.103-.01a.072.072 0 0 1-.028-.044.177.177 0 0 1-.003-.053.14.14 0 0 1 .013-.055.158.158 0 0 1 .063-.057c.011-.007.014-.012.024-.003a.096.096 0 0 1 .019.028zm-1.197 7.972a.224.224 0 0 1 .111-.07.704.704 0 0 1 .568.05c.053.03.131.062.163.01.01-.017.01-.038.011-.058.005-.094.031-.194.103-.256.102-.087.352-.083.41-.05.023.014.038.038.053.062.063.102.148.202.264.227a.394.394 0 0 0 .268-.057c.08-.045.153-.105.235-.15a.792.792 0 0 1 .375-.1c.032 0 .064.001.094.013.09.036.119.147.136.242.005.028.01.059-.002.085-.012.024-.036.04-.06.052-.282.152-.63.088-.94.172a1 1 0 0 0-.362.184c-.051.04-.099.087-.157.118a.642.642 0 0 1-.225.058c-.18.021-.36.033-.54.034a.614.614 0 0 1-.435-.176c-.095-.082-.152-.279-.07-.39z"/><path fill="#dedffb" d="M45.448 41.656c-2.64 1.532-6.928 1.536-9.587.004-2.732-1.584-2.717-4.17-.03-5.735.14-.078.28-.153.428-.219-.12.164-.23.34-.323.519-2.47 1.465-2.375 3.745.081 5.162 2.263 1.311 5.771 1.463 8.315.46a8.21 8.21 0 0 0 .675-.304c.094-.05.187-.101.281-.156 2.496-1.45 2.446-3.702.07-5.13a5.343 5.343 0 0 0-.328-.54c.133.067.262.133.387.208 2.69 1.552 2.757 4.143.03 5.731z"/><path fill="#4c5c75" d="M42.942 42.452a.611.611 0 0 1-1.22 0 .611.611 0 0 1 1.22 0z"/><path fill="#e9e7fc" d="M45.819 36.323c0 .288-.02.585-.063.885a4.337 4.337 0 0 0-.218-.581c.004-.105.007-.203.007-.304-.003-1.378-.464-2.396-1.299-2.876a2.285 2.285 0 0 0-1.15-.293c-.617 0-1.308.207-2.026.62-2.235 1.292-4.1 4.222-4.499 6.891a6.813 6.813 0 0 0-.081 1.042c0 .172.007.34.023.503.101 1.124.546 1.959 1.276 2.376.843.484 1.966.367 3.176-.331.074-.043.144-.086.214-.133h.004c.211-.02.418-.055.62-.101-.23.171-.46.331-.702.472-.76.437-1.498.66-2.161.66-.468 0-.901-.11-1.288-.333-.897-.515-1.404-1.576-1.432-3-.004-.035-.004-.074-.004-.113 0-.5.055-1.018.168-1.541.543-2.618 2.372-5.373 4.55-6.625 1.295-.75 2.52-.867 3.449-.332.92.53 1.432 1.635 1.436 3.114z"/><path fill="#4c5c75" d="M44.313 33.006a.611.611 0 0 1-1.22 0 .611.611 0 0 1 1.22 0z"/><path fill="#f3f1fc" d="M45.061 41.705c-.004 1.48-.515 2.587-1.436 3.118a2.58 2.58 0 0 1-1.287.328c-.664 0-1.401-.219-2.162-.66a6.47 6.47 0 0 1-.702-.468c.203.047.413.082.628.101.07.047.14.09.21.13 1.206.698 2.334.815 3.177.33.835-.48 1.295-1.501 1.299-2.879.008-2.906-2.048-6.465-4.58-7.928-.719-.413-1.41-.624-2.026-.624-1.68 0-2.445 1.46-2.45 3.168 0 .098.004.195.008.293v.004c-.004.003-.008.007-.008.011a5.745 5.745 0 0 0-.218.582c-.036-.3-.055-.601-.055-.89.008-3.055 2.2-4.326 4.885-2.782 2.61 1.506 4.725 5.17 4.717 8.166z"/><path fill="#f45170" d="M39.062 33.006a.611.611 0 0 1-1.22 0 .611.611 0 0 1 1.22 0z"/><path fill="#febc1f" d="M37.308 43.576a.611.611 0 0 1-1.22 0 .611.611 0 0 1 1.22 0z"/></svg>