<svg id="SvgjsSvg1001" width="256" height="256" xmlns="http://www.w3.org/2000/svg" version="1.1" xmlns:xlink="http://www.w3.org/1999/xlink" xmlns:svgjs="http://svgjs.com/svgjs"><defs id="SvgjsDefs1002"></defs><g id="SvgjsG1008"><svg xmlns="http://www.w3.org/2000/svg" viewBox="0 0 512 512" width="256" height="256"><path fill="#4a555f" d="M101.963 55.041s-3.381-1.34-7.336-2.889c1.698-3.889 3.14-7.23 3.14-7.23a3.002 3.002 0 0 0-.631-3.307L80.147 24.627a2.994 2.994 0 0 0-3.309-.631s-3.334 1.442-7.22 3.14c-1.549-3.948-2.888-7.328-2.888-7.328a2.998 2.998 0 0 0-2.787-1.893H39.914c-1.23 0-2.335.75-2.787 1.893 0 0-1.339 3.38-2.888 7.328-3.885-1.698-7.22-3.14-7.22-3.14a2.994 2.994 0 0 0-3.31.632L6.715 41.613a2.997 2.997 0 0 0-.632 3.312s1.446 3.34 3.147 7.226c-3.954 1.55-7.334 2.889-7.334 2.889A2.998 2.998 0 0 0 0 57.828v24.021c0 1.23.751 2.335 1.894 2.787 0 0 3.381 1.339 7.334 2.889-1.7 3.886-3.147 7.226-3.147 7.226a3 3 0 0 0 .631 3.312l16.995 16.986a2.999 2.999 0 0 0 3.31.632s3.335-1.442 7.22-3.14c1.549 3.948 2.888 7.328 2.888 7.328a2.998 2.998 0 0 0 2.787 1.893h24.029c1.23 0 2.335-.75 2.787-1.893 0 0 1.339-3.38 2.888-7.328 3.886 1.698 7.22 3.14 7.22 3.14a3.003 3.003 0 0 0 3.31-.632l16.988-16.987a3 3 0 0 0 .631-3.307s-1.442-3.341-3.14-7.23c3.955-1.549 7.336-2.889 7.336-2.889a2.997 2.997 0 0 0 1.894-2.787V57.828a2.99 2.99 0 0 0-1.892-2.787zM97.861 79.81c-1.96.774-5.171 2.038-8.32 3.266a2.999 2.999 0 0 0-1.658 3.999c1.359 3.092 2.733 6.258 3.571 8.19L77.35 109.368a2245.19 2245.19 0 0 1-8.18-3.569 2.997 2.997 0 0 0-3.999 1.655 2003.91 2003.91 0 0 1-3.267 8.313H41.953c-.774-1.96-2.039-5.169-3.266-8.313a3.01 3.01 0 0 0-1.646-1.681 3.013 3.013 0 0 0-2.353.026 2081.95 2081.95 0 0 1-8.18 3.569L12.396 95.266a2180.4 2180.4 0 0 1 3.577-8.191 2.993 2.993 0 0 0 .024-2.352 2.99 2.99 0 0 0-1.681-1.646 2153.58 2153.58 0 0 1-8.32-3.266V59.867c1.96-.774 5.171-2.038 8.32-3.266a3 3 0 0 0 1.657-3.998 2240.382 2240.382 0 0 1-3.576-8.19L26.508 30.31c1.931.838 5.091 2.213 8.18 3.569a3 3 0 0 0 3.999-1.655c1.227-3.145 2.492-6.354 3.266-8.313h19.951c.775 1.96 2.04 5.169 3.267 8.313a3.005 3.005 0 0 0 1.647 1.681 2.993 2.993 0 0 0 2.352-.026c3.089-1.358 6.249-2.732 8.181-3.569l14.104 14.103c-.838 1.932-2.213 5.099-3.571 8.19a2.995 2.995 0 0 0 1.658 3.999c3.149 1.228 6.36 2.492 8.32 3.266V79.81z" class="color4a555f svgShape"></path><path fill="#4a555f" d="M51.924 45.182c-13.595 0-24.656 11.061-24.656 24.656s11.061 24.656 24.656 24.656c13.6 0 24.665-11.061 24.665-24.656S65.525 45.182 51.924 45.182zm0 43.316c-10.289 0-18.66-8.371-18.66-18.66s8.371-18.66 18.66-18.66c10.294 0 18.669 8.371 18.669 18.66s-8.375 18.66-18.669 18.66z" class="color4a555f svgShape"></path><path fill="#ffd452" d="M51.924 100.914c-3.303 0-6.487-.518-9.476-1.477 0 0 3.349 8.571 3.875 9.91h11.213c.526-1.339 3.875-9.913 3.875-9.913a30.973 30.973 0 0 1-9.487 1.48zm-27.62-16.842s-3.701 8.428-4.276 9.747l7.927 7.919c1.315-.574 9.745-4.275 9.745-4.275a31.29 31.29 0 0 1-13.396-13.391zm55.248-.001a31.294 31.294 0 0 1-13.398 13.391s8.431 3.702 9.747 4.275l7.926-7.918a11832.3 11832.3 0 0 0-4.275-9.748zm1.981-23.7c.958 2.985 1.475 6.167 1.475 9.467s-.517 6.482-1.475 9.467c0 0 8.569-3.341 9.908-3.866V64.237c-1.339-.525-9.908-3.866-9.908-3.866zm-59.21 0s-8.568 3.341-9.908 3.867v11.2c1.339.526 9.908 3.867 9.908 3.867-.957-2.986-1.474-6.167-1.474-9.467s.516-6.481 1.474-9.467zm53.581-22.432c-1.316.574-9.75 4.276-9.75 4.276a31.302 31.302 0 0 1 13.399 13.391s3.7-8.429 4.275-9.747l-7.924-7.92zm-47.948.001-7.927 7.921c.576 1.318 4.276 9.744 4.276 9.744a31.29 31.29 0 0 1 13.396-13.391c-.001-.001-8.43-3.701-9.745-4.274zm29.579-7.611H46.322c-.526 1.339-3.875 9.91-3.875 9.91a30.971 30.971 0 0 1 9.476-1.477c3.307 0 6.495.519 9.486 1.48.001 0-3.348-8.574-3.874-9.913z" class="colorffd452 svgShape"></path><path fill="#4a555f" d="M510.107 55.041s-3.383-1.34-7.337-2.889c1.698-3.889 3.139-7.23 3.139-7.23a3.002 3.002 0 0 0-.631-3.307L488.29 24.627a3.001 3.001 0 0 0-3.31-.631s-3.332 1.442-7.218 3.14c-1.55-3.948-2.889-7.328-2.889-7.328a2.998 2.998 0 0 0-2.787-1.893h-24.028c-1.23 0-2.335.75-2.787 1.893 0 0-1.339 3.38-2.888 7.328-3.886-1.698-7.221-3.14-7.221-3.14a2.994 2.994 0 0 0-3.31.632l-16.993 16.985a2.997 2.997 0 0 0-.632 3.312s1.445 3.339 3.146 7.226c-3.954 1.55-7.335 2.889-7.335 2.889a2.997 2.997 0 0 0-1.894 2.787v24.021c0 1.23.751 2.335 1.894 2.787 0 0 3.381 1.339 7.335 2.889-1.7 3.887-3.146 7.226-3.146 7.226a3 3 0 0 0 .631 3.312l16.994 16.986a2.999 2.999 0 0 0 3.31.632s3.335-1.442 7.221-3.14c1.549 3.948 2.888 7.328 2.888 7.328a2.998 2.998 0 0 0 2.787 1.893h24.028c1.23 0 2.335-.75 2.787-1.893 0 0 1.339-3.38 2.889-7.328 3.886 1.698 7.218 3.14 7.218 3.14 1.13.49 2.442.238 3.31-.632l16.988-16.987a3.001 3.001 0 0 0 .631-3.307s-1.441-3.341-3.139-7.23a2242.57 2242.57 0 0 0 7.337-2.889A3 3 0 0 0 512 81.848v-24.02c0-1.23-.751-2.335-1.893-2.787zm-4.103 24.769c-1.96.774-5.171 2.038-8.321 3.266a3 3 0 0 0-1.656 3.998c1.357 3.092 2.733 6.258 3.568 8.19l-14.105 14.103c-1.931-.838-5.091-2.213-8.179-3.569a2.984 2.984 0 0 0-2.352-.025 2.994 2.994 0 0 0-1.647 1.68c-1.226 3.145-2.493 6.354-3.266 8.313h-19.951c-.775-1.96-2.04-5.169-3.267-8.313a3.005 3.005 0 0 0-1.647-1.681 3.01 3.01 0 0 0-2.352.026 2081.95 2081.95 0 0 1-8.18 3.569l-14.111-14.102c.84-1.934 2.218-5.1 3.576-8.19a2.991 2.991 0 0 0 .025-2.353 2.99 2.99 0 0 0-1.682-1.646c-3.149-1.228-6.36-2.492-8.32-3.266V59.867c1.96-.774 5.171-2.038 8.32-3.266a2.999 2.999 0 0 0 1.657-3.999c-1.358-3.09-2.736-6.255-3.576-8.19l14.111-14.103c1.93.838 5.091 2.213 8.18 3.569a2.997 2.997 0 0 0 3.999-1.655 2003.91 2003.91 0 0 1 3.267-8.313h19.951c.773 1.959 2.04 5.169 3.266 8.313a3.003 3.003 0 0 0 3.999 1.655c3.09-1.357 6.25-2.732 8.181-3.569l14.103 14.103c-.835 1.932-2.212 5.099-3.568 8.19a2.989 2.989 0 0 0-.025 2.352 2.99 2.99 0 0 0 1.681 1.646c3.15 1.228 6.361 2.492 8.321 3.266V79.81z" class="color4a555f svgShape"></path><path fill="#4a555f" d="M460.066 45.182c-13.595 0-24.656 11.061-24.656 24.656s11.061 24.656 24.656 24.656c13.601 0 24.665-11.061 24.665-24.656s-11.064-24.656-24.665-24.656zm0 43.316c-10.289 0-18.66-8.371-18.66-18.66s8.371-18.66 18.66-18.66c10.295 0 18.669 8.371 18.669 18.66s-8.374 18.66-18.669 18.66z" class="color4a555f svgShape"></path><path fill="#ffd452" d="M460.066 100.914c-3.302 0-6.487-.518-9.476-1.477 0 0 3.349 8.571 3.875 9.91h11.213c.526-1.339 3.875-9.913 3.875-9.913a30.973 30.973 0 0 1-9.487 1.48zm-27.619-16.842s-3.701 8.428-4.276 9.747l7.927 7.919c1.315-.574 9.745-4.275 9.745-4.275a31.284 31.284 0 0 1-13.396-13.391zm55.248-.001a31.294 31.294 0 0 1-13.398 13.391s8.432 3.702 9.747 4.275l7.926-7.918c-.576-1.319-4.275-9.748-4.275-9.748zm1.981-23.7c.958 2.985 1.475 6.167 1.475 9.467s-.517 6.482-1.475 9.467c0 0 8.569-3.341 9.908-3.866V64.237c-1.34-.525-9.908-3.866-9.908-3.866zm-59.211 0s-8.569 3.341-9.908 3.867v11.2c1.339.526 9.908 3.867 9.908 3.867-.957-2.986-1.474-6.167-1.474-9.467s.516-6.481 1.474-9.467zm53.581-22.432c-1.316.574-9.75 4.276-9.75 4.276a31.302 31.302 0 0 1 13.399 13.391s3.7-8.429 4.275-9.747l-7.924-7.92zm-47.948.001-7.927 7.921c.576 1.318 4.276 9.744 4.276 9.744a31.29 31.29 0 0 1 13.396-13.391c-.001-.001-8.43-3.701-9.745-4.274zm29.579-7.611h-11.213c-.526 1.339-3.875 9.91-3.875 9.91a30.971 30.971 0 0 1 9.476-1.477c3.307 0 6.495.519 9.486 1.48.001 0-3.348-8.574-3.874-9.913z" class="colorffd452 svgShape"></path><path fill="#71cce0" d="M254.819 316.57s-3.748-16.216-19.664-24.481v139.136c15.915 8.265 19.664 24.481 19.664 24.481s3.654-15.746 18.967-24.123V292.447c-15.313 8.377-18.967 24.123-18.967 24.123z" class="color71cce0 svgShape"></path><path fill="#f58e6f" d="m281.314 444.059-1.049.143c-13.018 1.768-23.436 13.667-25.446 29.064h151.973v-29.207H281.314zm-53.856.143-1.049-.143H100.931v29.207h151.973c-2.01-15.397-12.428-27.296-25.446-29.064z" class="colorf58e6f svgShape"></path><path fill="#4a555f" d="M361.7 97.843s-9.359-3.709-19.291-7.59c4.273-9.756 8.264-19.003 8.264-19.003a3.002 3.002 0 0 0-.631-3.307l-36.843-36.842a2.994 2.994 0 0 0-3.309-.631s-9.231 3.99-18.985 8.263a5678.448 5678.448 0 0 0-7.588-19.273 2.998 2.998 0 0 0-2.787-1.893h-52.116c-1.23 0-2.335.751-2.787 1.893 0 0-3.708 9.357-7.588 19.273-9.754-4.273-18.985-8.263-18.985-8.263a2.994 2.994 0 0 0-3.31.632l-36.858 36.839a2.997 2.997 0 0 0-.632 3.312s4.004 9.245 8.279 19c-9.932 3.881-19.29 7.59-19.29 7.59a2.998 2.998 0 0 0-1.893 2.787v52.097c0 1.23.751 2.335 1.893 2.787 0 0 9.359 3.708 19.29 7.59-4.275 9.754-8.279 18.999-8.279 18.999a2.998 2.998 0 0 0 .631 3.312l36.859 36.84a3.003 3.003 0 0 0 3.31.632s9.231-3.99 18.985-8.263c3.88 9.916 7.588 19.273 7.588 19.273a2.998 2.998 0 0 0 2.787 1.893h52.116c1.23 0 2.335-.751 2.787-1.893 0 0 3.708-9.357 7.588-19.273a4791.821 4791.821 0 0 0 18.985 8.263 3.007 3.007 0 0 0 3.31-.632l36.842-36.841a3 3 0 0 0 .631-3.307s-3.991-9.247-8.264-19.003c9.933-3.882 19.291-7.59 19.291-7.59a2.998 2.998 0 0 0 1.893-2.787V100.63a3 3 0 0 0-1.893-2.787zm-4.104 52.847a4835.574 4835.574 0 0 1-20.278 7.965 3 3 0 0 0-1.657 3.999c3.541 8.06 7.135 16.355 8.697 19.964l-33.96 33.957a4529.689 4529.689 0 0 1-19.944-8.695 3 3 0 0 0-3.999 1.656c-3.2 8.199-6.519 16.602-7.965 20.26h-48.04a5214.051 5214.051 0 0 1-7.965-20.26 3.01 3.01 0 0 0-1.646-1.681 3.026 3.026 0 0 0-2.353.025 4410.247 4410.247 0 0 1-19.944 8.695l-33.976-33.957a5056.33 5056.33 0 0 1 8.713-19.964 2.995 2.995 0 0 0 .024-2.353 2.99 2.99 0 0 0-1.681-1.646 4835.574 4835.574 0 0 1-20.278-7.965v-48.021a4738.782 4738.782 0 0 1 20.277-7.965 2.999 2.999 0 0 0 1.658-3.999 5228.918 5228.918 0 0 1-8.713-19.963l33.976-33.958a4476.888 4476.888 0 0 1 19.944 8.695 3 3 0 0 0 3.999-1.656c3.2-8.199 6.519-16.602 7.965-20.26h48.04c1.446 3.658 4.765 12.06 7.965 20.26a3.01 3.01 0 0 0 1.646 1.681 3.004 3.004 0 0 0 2.353-.025c8.058-3.54 16.338-7.133 19.945-8.696l33.959 33.958a4144.732 4144.732 0 0 1-8.697 19.964 2.995 2.995 0 0 0 1.658 3.999c8.213 3.2 16.618 6.519 20.277 7.965v48.021z" class="color4a555f svgShape"></path><path fill="#4a555f" d="M254.46 76.707c-27.554 0-49.971 22.417-49.971 49.971 0 27.555 22.417 49.972 49.971 49.972 27.565 0 49.991-22.417 49.991-49.972 0-27.553-22.426-49.971-49.991-49.971zm0 93.948c-24.248 0-43.975-19.728-43.975-43.976 0-24.248 19.727-43.975 43.975-43.975 24.259 0 43.994 19.727 43.994 43.975.001 24.248-19.735 43.976-43.994 43.976z" class="color4a555f svgShape"></path><path fill="#f58e6f" d="M351.177 146.323v-39.288a4522.026 4522.026 0 0 0-16.189-6.35l-9.154-3.567 3.952-8.995a3896.906 3896.906 0 0 0 6.95-15.932l-7.527-7.539-20.259-20.244a4275.094 4275.094 0 0 0-15.913 6.947l-8.99 3.95-3.571-9.147a5027.568 5027.568 0 0 0-6.352-16.176h-39.308a4901.722 4901.722 0 0 0-6.351 16.175l-3.57 9.148-8.991-3.95a4453.655 4453.655 0 0 0-15.91-6.946l-27.8 27.783a5198.9 5198.9 0 0 0 6.961 15.93l3.952 8.995-9.154 3.567a4720.293 4720.293 0 0 0-16.189 6.35v39.288a4272.167 4272.167 0 0 0 16.189 6.35l9.155 3.566-3.953 8.996a4834.177 4834.177 0 0 0-6.962 15.933l27.801 27.78a4375.617 4375.617 0 0 0 15.91-6.946l8.991-3.95 3.57 9.148a5135.856 5135.856 0 0 0 6.351 16.175h39.308a5027.568 5027.568 0 0 0 6.352-16.176l3.571-9.147 8.99 3.95a4453.655 4453.655 0 0 0 15.91 6.946l20.253-20.234 7.536-7.548a3837.219 3837.219 0 0 0-6.95-15.932l-3.953-8.996 9.155-3.566a3930.31 3930.31 0 0 0 16.189-6.348zm-96.716 36.747c-31.094 0-56.391-25.297-56.391-56.391s25.297-56.391 56.391-56.391c31.105 0 56.41 25.297 56.41 56.391s-25.305 56.391-56.41 56.391z" class="colorf58e6f svgShape"></path><path fill="#4a555f" d="M257.74 299.476c-.075-.326-1.919-8.065-8.195-15.815-5.807-7.169-16.641-15.714-35.277-15.714H95.778a2.998 2.998 0 0 0-2.998 2.998V444.06a2.998 2.998 0 0 0 2.998 2.998h118.489c30.904 0 37.371 25.794 37.63 26.884a2.999 2.999 0 0 0 5.92-.677V300.152c0-.227-.027-.455-.077-.676zm-5.92 160.375a44.172 44.172 0 0 0-2.276-3.075c-5.807-7.169-16.641-15.714-35.277-15.714H98.776V273.943h115.491c29.459 0 36.714 23.439 37.553 26.582v159.326z" class="color4a555f svgShape"></path><path fill="#4a555f" d="M413.859 267.947H295.37c-18.636 0-29.47 8.546-35.277 15.714-6.277 7.75-8.12 15.489-8.195 15.815a3.021 3.021 0 0 0-.077.676v173.114a2.999 2.999 0 0 0 5.92.677c.062-.269 6.583-26.884 37.63-26.884H413.86a2.998 2.998 0 0 0 2.998-2.998V270.945a3 3 0 0 0-2.999-2.998zm-2.998 173.115H295.37c-18.636 0-29.47 8.546-35.277 15.714a44.41 44.41 0 0 0-2.276 3.075V300.525c.839-3.143 8.094-26.582 37.553-26.582h115.491v167.119z" class="color4a555f svgShape"></path><path fill="#4a555f" d="M430.811 287.327h-16.955v5.996h13.957v195.115H81.826V293.323h13.956v-5.996H78.827a2.998 2.998 0 0 0-2.998 2.998v201.111a2.998 2.998 0 0 0 2.998 2.998h351.984a2.998 2.998 0 0 0 2.998-2.998V290.325a2.998 2.998 0 0 0-2.998-2.998z" class="color4a555f svgShape"></path><path fill="#4a555f" d="M128.477 296.411h90.798v5.996h-90.798zM128.477 327.853h90.798v5.996h-90.798zM128.477 353.91h90.798v5.996h-90.798zM128.477 379.967h90.798v5.996h-90.798zM128.477 406.024h90.798v5.996h-90.798zM290.826 296.411h90.798v5.996h-90.798zM290.826 327.853h90.798v5.996h-90.798zM290.826 353.91h90.798v5.996h-90.798zM290.826 379.967h90.798v5.996h-90.798zM290.826 406.024h90.798v5.996h-90.798zM393.988 126.104c1.755.822 3.503 1.703 5.195 2.618l2.852-5.274a106.828 106.828 0 0 0-5.504-2.774l-2.543 5.43zm10.234 5.532a100.58 100.58 0 0 1 4.859 3.198l3.439-4.913a107.117 107.117 0 0 0-5.15-3.388l-3.148 5.103zm44.482 59.107 5.776-1.608a105.06 105.06 0 0 0-1.828-5.897l-5.672 1.942a102.049 102.049 0 0 1 1.724 5.563zm-22.013-48.967-4.228 4.251a102.881 102.881 0 0 1 4.01 4.222l4.464-4.004a110.287 110.287 0 0 0-4.246-4.469zm25.619 71.933 5.993-.242a108.05 108.05 0 0 0-.426-6.151l-5.967.584c.188 1.93.323 3.884.4 5.809zm-1.138-11.582 5.924-.929a106.728 106.728 0 0 0-1.134-6.07l-5.86 1.271c.41 1.893.77 3.82 1.07 5.728zm-37.42-63.821a102.052 102.052 0 0 1 4.466 3.737l3.978-4.488a108.953 108.953 0 0 0-4.728-3.956l-3.716 4.707zm36.845 98.591 5.891 1.119a107.4 107.4 0 0 0 .977-6.088l-5.946-.781a102.97 102.97 0 0 1-.922 5.75zm-2.827 11.29 5.723 1.788a107.842 107.842 0 0 0 1.67-5.937l-5.817-1.456c-.47 1.873-1 3.758-1.576 5.605zm4.607-28.656a103.24 103.24 0 0 1-.265 5.82l5.981.443c.151-2.047.246-4.12.281-6.159l-5.997-.104zm-8.714 39.546 5.479 2.436a106.666 106.666 0 0 0 2.341-5.706l-5.61-2.116a102.395 102.395 0 0 1-2.21 5.386zm-1.608-98.07-5.081 3.186a100.03 100.03 0 0 1 2.949 5.021l5.257-2.887a107.575 107.575 0 0 0-3.125-5.32zm-7.133-10.055-4.685 3.742a103.623 103.623 0 0 1 3.504 4.653l4.892-3.469a109.928 109.928 0 0 0-3.711-4.926zm15.566 26.508a108.463 108.463 0 0 0-2.492-5.642l-5.415 2.577c.837 1.761 1.63 3.554 2.355 5.33l5.552-2.265z" class="color4a555f svgShape"></path><path fill="#4a555f" d="m407.09 113.977-1.261-5.862-23.713 5.099a3 3 0 0 0-2.05 4.275l11.542 23.021 5.36-2.688-9.807-19.56 19.929-4.285zM59.902 226.35a100.847 100.847 0 0 1-.232-3.496l-5.989.293a107.616 107.616 0 0 0 .477 6.15l5.963-.634c-.081-.768-.155-1.538-.219-2.313zm1 8.083-5.916.972c.332 2.02.727 4.057 1.175 6.055l5.852-1.312a101.085 101.085 0 0 1-1.111-5.715zm-3.218 13.005c.561 1.962 1.188 3.94 1.864 5.878l5.663-1.975a101.927 101.927 0 0 1-1.761-5.55l-5.766 1.647zm2.489-66.697 5.624 2.079a101.921 101.921 0 0 1 2.178-5.403l-5.495-2.401a107.754 107.754 0 0 0-2.307 5.725zm3.761 7.599-5.735-1.751a107.717 107.717 0 0 0-1.632 5.954l5.827 1.417c.457-1.881.976-3.771 1.54-5.62zm-2.754 11.32-5.899-1.074a107.341 107.341 0 0 0-.93 6.096l5.952.732c.234-1.904.53-3.839.877-5.754zm-1.422 11.551-5.985-.386a108.672 108.672 0 0 0-.222 6.159l5.996.047c.015-1.927.087-3.885.211-5.82zm27.391-71.281 4.121 4.355a103.674 103.674 0 0 1 4.342-3.88l-3.869-4.583a108.919 108.919 0 0 0-4.594 4.108zm9.42-7.947 3.598 4.798a100.307 100.307 0 0 1 4.753-3.355l-3.314-4.997a106.997 106.997 0 0 0-5.037 3.554zm-31.455 37.454 5.348 2.713a102.413 102.413 0 0 1 2.784-5.117l-5.182-3.016a107.11 107.11 0 0 0-2.95 5.42zm58.411-52.163a107.522 107.522 0 0 0-5.712 2.308l2.407 5.493c1.773-.777 3.587-1.51 5.388-2.177l-2.083-5.624zm-16.69 7.896 3.024 5.179a99.51 99.51 0 0 1 5.104-2.784l-2.717-5.346c-1.812.92-3.633 1.913-5.411 2.951zm-28.14 23.73 4.591 3.857c1.24-1.477 2.542-2.94 3.872-4.35l-4.365-4.113a109.862 109.862 0 0 0-4.098 4.606zm-7.378 9.879 5.003 3.307a102.34 102.34 0 0 1 3.35-4.764l-4.804-3.588a108.75 108.75 0 0 0-3.549 5.045z" class="color4a555f svgShape"></path><path fill="#4a555f" d="m72.407 237.781-8.185 19.208L46.95 245.6l-3.301 5.007 20.273 13.366a3.001 3.001 0 0 0 2.515.367 2.995 2.995 0 0 0 1.893-1.695l9.593-22.514-5.516-2.35z" class="color4a555f svgShape"></path></svg></g></svg>